<svg xmlns="http://www.w3.org/2000/svg" width="4000" height="2000" fill="none" viewBox="0 0 4000 2000">
  <g clip-path="url(#a)">
    <path fill="#fff" d="M360.31 9.775c-8.868-36.712-24.944-70.785-48.168-100.67-19.965-25.687-45.319-48.645-73.722-64.687-15.626-8.826-31.372-16.992-48.348-22.899-16.835-5.867-34.421-10.095-51.987-13.063-30.932-5.238-63.454-4.888-94.426-.15-31.112 4.757-62.464 14.473-90.367 29.125-15.626 8.206-30.923 17.621-44.87 28.476-13.736 10.695-26.013 23.128-37.71 35.982-21.134 23.228-37.63 50.905-50.317 79.54-12.637 28.526-20.665 59.71-24.464 90.625-3.809 31.004-2.959 63.398 2.699 94.123 11.917 64.738 45.089 122.938 92.317 168.346 11.377 10.934 23.124 21.309 35.921 30.574 14.657 10.615 30.303 19.471 46.259 27.966 28.593 15.223 59.175 24.798 90.847 31.275 13.357 2.728 26.913 4.398 40.53 5.097 12.657.65 25.294-2.458 35.351-10.504 9.488-7.587 17.456-21.08 18.115-33.414.67-12.424-2.089-25.707-10.507-35.342-8.488-9.715-20.175-17.291-33.422-18.111-13.936-.86-27.763-2.779-41.41-5.647-21.114-5.557-41.529-13.434-60.934-23.438-19.035-10.995-36.82-23.988-53.027-38.841-13.856-13.983-26.253-29.305-36.92-45.847-8.638-15.053-15.776-30.895-21.225-47.366-4.699-17.412-7.538-35.243-8.598-53.254-.15-20.08 1.88-40.1 5.998-59.75 5.02-18.97 11.998-37.361 20.915-54.843 8.958-15.402 19.445-29.825 31.432-43.018a232.856 232.856 0 0 1 35.712-28.636C.31-76.722 15.405-83.348 31.072-88.496c17.266-4.657 34.941-7.506 52.797-8.576 18.115-.11 36.181 1.63 53.917 5.298 15.616 4.198 30.752 9.915 45.188 17.201a219.864 219.864 0 0 1 35.491 26.067 225.078 225.078 0 0 1 27.483 34.213c6.469 11.454 11.867 23.438 16.096 35.892 2.94 11.215 4.879 22.629 5.709 34.193-.09 10.915-1.21 21.76-3.289 32.474a180.952 180.952 0 0 1-12.087 31.584c-5.249 8.706-11.217 16.922-17.936 24.548a151.896 151.896 0 0 1-19.855 15.992 144.656 144.656 0 0 1-20.964 9.265 154.198 154.198 0 0 1-25.344 4.118 151.487 151.487 0 0 1-25.844-2.539 138.701 138.701 0 0 1-20.944-7.976 124.627 124.627 0 0 1-15.167-11.064 122.58 122.58 0 0 1-10.927-13.723 133.16 133.16 0 0 1-8.128-18.321 136.372 136.372 0 0 1-3.429-20.77c.13-6.416.74-12.803 1.85-19.12a112 112 0 0 1 5.588-14.653c.9-1.43 1.83-2.838 2.8-4.228 7.438-10.654 11.107-24.298 8.977-37.241C101.135 12.444 93.677-.86 83.669-7.566c-10.757-7.207-24.204-11.704-37.25-8.976-12.397 2.589-24.285 8.736-31.713 19.38-42.11 60.34-36.77 142.589 6.249 200.91 3.919 5.317 8.298 10.225 13.017 14.833 7.718 7.536 15.336 14.922 24.263 21.009 14.497 9.885 30.783 18.321 47.668 23.339 34.392 10.234 71.903 12.843 106.784 3.188 10.387-2.879 20.865-5.917 30.772-10.215 9.958-4.308 19.145-9.965 28.333-15.712 15.526-9.715 28.403-22.299 40.68-35.822 12.287-13.533 21.204-28.946 29.752-45.018a175.885 175.885 0 0 0 15.456-40.429c4.449-18.021 8.148-35.743 8.158-54.363 0-18.451-1.189-36.822-5.528-54.793v.01Zm381.764 824.228c-8.168-9.345-20.434-18.091-33.381-18.091s-24.754 2.049-35.311 10.495c-9.478 7.576-17.436 21.059-18.096 33.373-.67 12.404 2.09 25.677 10.498 35.302 8.167 9.346 20.434 18.091 33.381 18.091s24.754-2.049 35.311-10.494c9.478-7.577 17.436-21.06 18.096-33.374.67-12.404-2.09-25.677-10.498-35.302Z"/>
    <path fill="#fff" d="M959.1 791.294c-10.027-33.823-23.144-65.877-38.99-97.391-15.016-29.835-31.472-58.921-47.018-88.476-17.406-33.083-33.762-66.916-45.289-102.548-.13-.41-.28-.83-.43-1.25-.24-.829-.48-1.659-.71-2.489a385.768 385.768 0 0 1-3.099-11.984 353.516 353.516 0 0 1-4.719-23.018c-2.479-14.493-4.029-29.106-4.789-43.778-.399-30.165 2.69-60.21 9.098-89.685 7.578-29.326 18.406-57.652 32.412-84.498 14.247-24.808 31.152-47.896 50.687-68.836 8.148-8.735 10.828-26.027 8.978-37.271-1.919-11.694-9.377-25.018-19.405-31.724-10.757-7.207-24.224-11.704-37.281-8.976-13.376 2.799-22.474 9.476-31.732 19.401-72.002 77.151-112.702 186.666-111.002 291.984.46 28.246 2.539 56.251 8.458 83.908 6.418 29.985 16.206 59.44 28.173 87.656 22.034 51.924 51.527 100.17 76.901 150.445 7.108 14.083 13.946 28.336 20.115 42.858a434.61 434.61 0 0 1 8.048 20.33 423.453 423.453 0 0 1 3.459 9.765c.91 2.669 3.829 8.256 3.619 11.125 0 .11-.12-.17-.28-.67.1.36.21.72.3 1.079.92 3.349 1.789 6.707 2.619 10.085a360.54 360.54 0 0 1 4.619 21.6 315.583 315.583 0 0 1 4.559 38.121c.09 16.271-1.25 32.443-4.429 48.395-3.169 11.385-7.308 22.399-12.507 33.004-6.178 10.245-13.317 19.78-21.315 28.696-43.889 42.878-101.724 67.338-149.922 104.698-30.103 23.33-54.357 51.28-71.662 85.2-22.095 43.28-23.084 94.21-17.656 141.45 5.219 45.39 17.156 89.94 19.725 135.64.16 22.74-2.209 45.35-6.928 67.58-6.258 23.88-15.146 46.93-26.483 68.86-12.247 21.24-26.714 41.04-43.31 59.09-8.647 8.59-17.745 16.69-27.343 24.21a294.254 294.254 0 0 1-17.645 12.79c-1.34.9-2.69 1.79-4.049 2.67-2.08 1.35-2.74 1.87-2.61 1.91-1.709.79-3.319 1.47-4.149 1.91a237.837 237.837 0 0 1-30.842 13.87c-1.629.6-3.269 1.17-4.919 1.73-2.069.7-2.959 1.08-3.119 1.23-1.809.33-3.569.58-4.759.86-3.349.78-6.708 1.47-10.097 2.06a175.867 175.867 0 0 1-17.546 2.18c-8.228-.09-16.386-.82-24.484-2.26-5.978-1.8-11.777-4-17.425-6.64-18.706-11.81-34.042-27.88-51.078-41.93-25.523-21.04-56.015-34.84-89.147-37.94-31.082-2.91-62.265 2.61-92.577 8.82-26.863 5.49-53.577 9.93-80.93 11.39a432.35 432.35 0 0 1-98.545-9.93c-16.416-4.19-32.612-9.3-47.878-16.68a119.386 119.386 0 0 1-13.717-9.83 81.902 81.902 0 0 1-4.809-5.85c-.679-1.28-1.469-2.74-1.759-3.38-.58-1.27-1.07-2.58-1.58-3.88-.48-3.34-1.029-6.61-1.439-9.92.19-4.61.669-9.17 1.429-13.72a121.03 121.03 0 0 1 5.969-15.42c4.619-7.45 9.887-14.4 15.696-20.96 11.707-11.18 24.604-20.66 38.11-29.65 1.31-.76 2.62-1.52 3.94-2.26a298.06 298.06 0 0 1 12.496-6.61 303.316 303.316 0 0 1 24.654-10.99c3.989-1.57 8.008-3.07 12.057-4.48 4.059-1.41 19.785-5.05 3.87-1.47 8.787-1.98 17.385-4.65 26.242-6.43 15.677-3.16 31.553-5.1 47.509-5.96 24.144-.22 48.148 2.16 71.752 7.19 13.036 3.44 25.833 7.65 38.36 12.71 23.744 9.58 54.946-3.35 63.204-28.14 8.588-25.74-2.809-52.65-28.143-63.18-117.29-48.81-263.374-30.08-362.379 50.59-27.333 22.27-51.677 51.06-63.664 84.64-12.697 35.56-13.987 78.57 4.179 112.61 35.141 65.86 114.021 86.62 182.844 95.61 39.82 5.2 80.84 4.89 120.66-.2 34.241-4.36 67.653-14.59 102.124-17.04 7.468.07 14.857.65 22.215 1.88 4.399 1.37 8.688 3 12.887 4.91 19.595 12.39 35.491 29.57 53.576 44.01 25.954 20.72 56.976 33.64 89.948 37.61 62.954 7.58 126.118-17.51 176.576-53.47 88.807-63.3 147.183-172.3 151.122-281.22 1.269-35.08-2.999-69.75-8.988-104.21-5.329-30.65-11.437-61.27-13.247-92.37-.08-13.75.92-27.4 3.469-40.91 2.53-8.82 5.769-17.36 9.758-25.6 5.639-9.23 12.137-17.81 19.355-25.86 33.932-32.98 76.681-55.04 116.091-80.64 49.418-32.11 93.287-72.84 115.001-128.994 24.344-62.979 19.855-134.023.96-197.732v-.01ZM492.327 1700.26c1.44-.82 3.189-1.96 3.759-2.65-.62.87-2.1 1.79-3.759 2.65Z"/>
    <path fill="#fff" d="M864.304 816.172c-.49-1.729-.99-3.458-1.47-5.188-1.14-4.087.74 2.899 1.47 5.188ZM4359.31 9.775c-8.87-36.712-24.94-70.785-48.17-100.67-19.96-25.687-45.32-48.645-73.72-64.687-15.63-8.826-31.37-16.992-48.35-22.899-16.83-5.867-34.42-10.095-51.98-13.063-30.94-5.238-63.46-4.888-94.43-.15-31.11 4.757-62.47 14.473-90.37 29.125-15.62 8.206-30.92 17.621-44.87 28.476-13.73 10.695-26.01 23.128-37.71 35.982-21.13 23.228-37.63 50.905-50.32 79.54-12.63 28.526-20.66 59.71-24.46 90.625-3.81 31.004-2.96 63.398 2.7 94.123 11.92 64.738 45.09 122.938 92.32 168.346 11.37 10.934 23.12 21.309 35.92 30.574 14.65 10.615 30.3 19.471 46.26 27.966 28.59 15.223 59.17 24.798 90.84 31.275 13.36 2.728 26.92 4.398 40.53 5.097 12.66.65 25.3-2.458 35.35-10.504 9.49-7.587 17.46-21.08 18.12-33.414.67-12.424-2.09-25.707-10.51-35.342-8.49-9.715-20.17-17.291-33.42-18.111-13.94-.86-27.76-2.779-41.41-5.647-21.11-5.557-41.53-13.434-60.93-23.438-19.04-10.995-36.82-23.988-53.03-38.841-13.86-13.983-26.25-29.305-36.92-45.847-8.64-15.053-15.78-30.895-21.23-47.366-4.69-17.412-7.53-35.243-8.59-53.254-.15-20.08 1.88-40.1 6-59.75 5.01-18.97 11.99-37.361 20.91-54.843 8.96-15.402 19.44-29.825 31.43-43.018a233.306 233.306 0 0 1 35.71-28.636c14.33-8.146 29.43-14.772 45.09-19.92 17.27-4.657 34.94-7.506 52.8-8.576 18.11-.11 36.18 1.63 53.93 5.298 15.61 4.198 30.75 9.915 45.18 17.201a219.418 219.418 0 0 1 35.49 26.067 225.122 225.122 0 0 1 27.49 34.213c6.47 11.454 11.87 23.438 16.09 35.892 2.94 11.215 4.88 22.629 5.71 34.193-.09 10.915-1.21 21.76-3.29 32.474a180.925 180.925 0 0 1-12.08 31.584c-5.25 8.706-11.22 16.922-17.94 24.548a152.584 152.584 0 0 1-19.85 15.992 144.361 144.361 0 0 1-20.98 9.265 154.15 154.15 0 0 1-25.34 4.118c-8.68-.11-17.31-.949-25.85-2.539a139.063 139.063 0 0 1-20.94-7.976 124.659 124.659 0 0 1-15.17-11.064 121.367 121.367 0 0 1-10.92-13.723 133.147 133.147 0 0 1-8.13-18.321 136.349 136.349 0 0 1-3.43-20.77c.13-6.416.74-12.803 1.85-19.12 1.52-5.008 3.38-9.895 5.59-14.653.9-1.43 1.83-2.838 2.8-4.228 7.43-10.654 11.1-24.298 8.97-37.241-1.92-11.694-9.37-24.998-19.38-31.704-10.76-7.207-24.21-11.704-37.25-8.976-12.4 2.589-24.29 8.736-31.71 19.38-42.11 60.34-36.77 142.589 6.24 200.91 3.92 5.317 8.3 10.225 13.02 14.833 7.72 7.536 15.34 14.922 24.27 21.009 14.49 9.885 30.78 18.321 47.66 23.339 34.39 10.234 71.91 12.843 106.79 3.188 10.38-2.879 20.86-5.917 30.77-10.215 9.96-4.308 19.14-9.965 28.33-15.712 15.53-9.715 28.4-22.299 40.68-35.822 12.29-13.533 21.21-28.946 29.75-45.018a175.896 175.896 0 0 0 15.46-40.429c4.45-18.021 8.15-35.743 8.16-54.363 0-18.451-1.19-36.822-5.53-54.793v.01Zm598.79 781.519c-10.03-33.823-23.14-65.877-38.99-97.391-15.02-29.835-31.47-58.921-47.02-88.476-17.4-33.083-33.76-66.916-45.29-102.548-.13-.41-.28-.83-.43-1.25-.24-.829-.48-1.659-.71-2.489-1.1-3.978-2.13-7.976-3.1-11.984a352.859 352.859 0 0 1-4.72-23.018c-2.47-14.493-4.02-29.106-4.78-43.778-.4-30.165 2.69-60.21 9.09-89.685 7.58-29.326 18.4-57.652 32.42-84.498 14.24-24.808 31.15-47.896 50.68-68.836 8.15-8.735 10.83-26.027 8.98-37.271-1.92-11.694-9.38-25.018-19.4-31.724-10.76-7.207-24.23-11.704-37.29-8.976-13.37 2.799-22.47 9.476-31.73 19.401-72 77.151-112.7 186.666-111 291.984.46 28.246 2.54 56.251 8.46 83.908 6.42 29.985 16.2 59.44 28.17 87.656 22.04 51.924 51.53 100.17 76.9 150.445 7.11 14.083 13.95 28.336 20.12 42.858a433.54 433.54 0 0 1 8.05 20.33c1.19 3.238 2.34 6.497 3.45 9.765.91 2.669 3.83 8.256 3.62 11.125 0 .11-.12-.17-.28-.67.1.36.21.72.3 1.079a383.39 383.39 0 0 1 2.62 10.085c1.76 7.147 3.3 14.353 4.62 21.6a315.384 315.384 0 0 1 4.56 38.121c.09 16.271-1.25 32.443-4.43 48.395-3.17 11.385-7.31 22.399-12.51 33.004-6.17 10.245-13.31 19.78-21.31 28.696-43.89 42.878-101.72 67.338-149.92 104.698-30.1 23.33-54.36 51.28-71.66 85.2-22.1 43.28-23.09 94.21-17.66 141.45 5.22 45.39 17.16 89.94 19.73 135.64.16 22.74-2.21 45.35-6.93 67.58-6.26 23.88-15.15 46.93-26.49 68.86-12.24 21.24-26.71 41.04-43.31 59.09-8.64 8.59-17.74 16.69-27.34 24.21a297.387 297.387 0 0 1-21.69 15.46c-2.08 1.35-2.74 1.87-2.61 1.91-1.71.79-3.32 1.47-4.15 1.91-6.49 3.49-13.15 6.69-19.93 9.56-3.6 1.53-7.24 2.97-10.91 4.31-1.63.6-3.27 1.17-4.92 1.73-2.07.7-2.96 1.08-3.12 1.23-1.81.33-3.57.58-4.76.86-3.35.78-6.71 1.47-10.1 2.06-5.82 1.03-11.67 1.74-17.54 2.18-8.23-.09-16.39-.82-24.49-2.26-5.98-1.8-11.77-4-17.42-6.64-18.71-11.81-34.04-27.88-51.08-41.93-25.52-21.04-56.02-34.84-89.15-37.94-31.08-2.91-62.26 2.61-92.57 8.82-26.87 5.49-53.58 9.93-80.93 11.39-33.16.47-66.16-2.85-98.55-9.93-16.42-4.19-32.61-9.3-47.88-16.68-4.8-2.96-9.38-6.22-13.71-9.83-1.69-1.88-3.3-3.82-4.81-5.85-.68-1.28-1.47-2.74-1.76-3.38-.58-1.27-1.07-2.58-1.58-3.88-.48-3.34-1.03-6.61-1.44-9.92.19-4.61.67-9.17 1.43-13.72 1.64-5.29 3.63-10.41 5.97-15.42 4.61-7.45 9.88-14.4 15.69-20.96 11.71-11.18 24.61-20.66 38.11-29.65 1.31-.76 2.62-1.52 3.94-2.26 4.12-2.3 8.28-4.51 12.5-6.61a303.23 303.23 0 0 1 24.65-10.99 322.9 322.9 0 0 1 12.06-4.48c4.06-1.41 19.78-5.05 3.87-1.47 8.79-1.98 17.38-4.65 26.24-6.43 15.68-3.16 31.55-5.1 47.51-5.96 24.14-.22 48.15 2.16 71.75 7.19 13.04 3.44 25.84 7.65 38.36 12.71 23.75 9.58 54.95-3.35 63.21-28.14 8.58-25.74-2.81-52.65-28.15-63.18-117.29-48.81-263.37-30.08-362.38 50.59-27.33 22.27-51.67 51.06-63.66 84.64-12.7 35.56-13.99 78.57 4.18 112.61 35.14 65.86 114.02 86.62 182.84 95.61 39.82 5.2 80.84 4.89 120.66-.2 34.24-4.36 67.66-14.59 102.13-17.04 7.47.07 14.85.65 22.21 1.88 4.4 1.37 8.69 3 12.89 4.91 19.59 12.39 35.49 29.57 53.58 44.01 25.95 20.72 56.97 33.64 89.94 37.61 62.96 7.58 126.12-17.51 176.58-53.47 88.81-63.3 147.18-172.3 151.12-281.22 1.27-35.08-3-69.75-8.99-104.21-5.33-30.65-11.43-61.27-13.24-92.37-.08-13.75.92-27.4 3.47-40.91 2.52-8.82 5.76-17.36 9.75-25.6 5.64-9.23 12.14-17.81 19.36-25.86 33.94-32.98 76.68-55.04 116.09-80.64 49.42-32.11 93.29-72.84 115-128.994 24.34-62.979 19.85-134.023.96-197.732v-.01Zm-466.78 908.966c1.44-.82 3.19-1.96 3.76-2.65-.62.87-2.1 1.79-3.76 2.65Z"/>
    <path fill="#fff" d="M4863.3 816.172c-.49-1.729-.99-3.458-1.47-5.188-1.14-4.087.74 2.899 1.47 5.188ZM471.592 1533.03c-8.158-9.33-20.425-18.07-33.362-18.07-12.936 0-24.733 2.05-35.281 10.49-9.467 7.57-17.415 21.04-18.075 33.35-.66 12.39 2.089 25.66 10.487 35.27 8.158 9.34 20.425 18.07 33.362 18.07 12.937 0 24.734-2.05 35.281-10.48 9.468-7.58 17.416-21.04 18.075-33.35.66-12.4-2.089-25.66-10.487-35.28ZM1903.76 337.021c-2.57-12.273-8.68-24.567-19.41-31.754-3.87-2.119-7.75-4.228-11.62-6.346-8.33-3.169-16.88-4.048-25.68-2.639-108.15 5.787-215.63 22.928-320.22 51.034-107.58 28.906-212.3 67.906-311.69 118.281-26.89 13.623-53.22 28.206-79.39 43.159-23.91 13.653-48.15 27.056-74.31 35.852-8.85 2.319-17.85 4.028-26.97 4.837-6.78-.16-13.5-.829-20.16-2.019a120.307 120.307 0 0 1-16.11-6.087 98.468 98.468 0 0 1-9.407-6.816 83.262 83.262 0 0 1-4.599-5.697 80.984 80.984 0 0 1-2.399-5.398 88.275 88.275 0 0 1-1.21-7.426 98.4 98.4 0 0 1 1.18-10.974c2.499-8.246 5.798-16.192 9.647-23.919 12.938-21.929 29.118-41.629 44.758-61.689 17.77-22.788 35.17-45.877 51.63-69.635 34.73-50.135 66.17-103.958 87.1-161.419 22.27-61.17 32.85-125.897 27.39-190.895-4.76-56.701-25.29-111.084-57.85-157.601-30.48-43.548-74.85-79.52-124.96-97.841-58.7-21.449-124.104-20.03-183.609-2.659-107.533 31.395-202.899 102.599-264.194 196.482-66.053 101.16-92.887 225.687-73.082 345.058 2.23 13.453 5.159 26.756 8.658 39.93 3.359 12.643 8.338 23.408 19.225 31.434 9.768 7.196 24.834 11.424 36.931 8.895 12.157-2.538 24.324-8.605 31.442-19.22 6.948-10.365 12.127-24.338 8.898-36.922-7.478-29.115-11.937-58.87-13.427-88.875a451.78 451.78 0 0 1 10.428-104.328c8.398-32.814 20.485-64.538 36.211-94.543 17.005-29.825 37.45-57.51 60.844-82.648 23.805-23.958 50.198-45.158 78.771-63.179 25.273-14.812 51.957-27.116 79.84-36.132 20.785-5.767 42.009-9.595 63.554-10.914 16.046-.08 32.002 1.329 47.738 4.478a206.33 206.33 0 0 1 37.362 14.292c12.75 7.557 24.62 16.392 35.63 26.307 12.23 12.454 23.06 26.117 32.51 40.79a274.502 274.502 0 0 1 22.43 50.415c5.56 20.49 8.72 41.519 9.89 62.728.3 28.566-2.97 56.982-9.02 84.898-10.14 39.74-25.74 77.701-44.9 113.933-32.75 58.481-73.964 110.784-114.664 163.838-24.324 31.714-45.019 66.167-52.807 105.787-7.198 36.592 3.369 78.891 29.283 106.247 25.923 27.376 59.385 43.328 96.668 48.456 36.79 5.067 74.45-3.968 108.27-18.061 30.92-12.884 59.34-30.995 88.58-47.147a1533.002 1533.002 0 0 1 90.22-46.017c67.21-31.544 136.69-58.171 207.7-79.86 90.43-26.686 183.18-45.337 276.94-55.302 27.03-2.869 54.11-5.008 81.24-6.457 11.58-.62 25.19-10.495 31.77-19.41 7.27-9.865 11.53-25.078 8.98-37.292l-.03-.01Z"/>
    <path fill="#fff" d="M2014.53 120.47c-90.88-73.054-182.86-144.758-274.3-217.092-25.79-20.41-51.59-40.799-77.4-61.189-3.86-2.109-7.73-4.228-11.6-6.337-6.25-2.669-12.67-3.618-19.27-2.839-10.02.33-21.67 3.319-29.25 10.385C1549.65-107.116 1499.17-54.722 1451.8.23c-44.99 52.194-87.12 106.876-126.04 163.738-21.96 32.074-43.01 64.808-62.67 98.351-4.23 5.347-6.83 11.314-7.81 17.911-2.06 6.187-2.43 12.544-1.1 19.07 1.91 11.605 9.3 24.818 19.25 31.485 10.68 7.156 24.04 11.614 36.99 8.905 11.86-2.479 24.95-8.506 31.49-19.25 57.71-94.643 122.19-184.728 195.02-268.376 19.35-22.229 39.25-43.968 59.62-65.267a1890.788 1890.788 0 0 1 39.8-39.8c80.7 63.938 161.43 127.836 242.15 191.744 25.78 20.409 51.46 40.969 77.4 61.189 9.94 7.746 24.98 11.005 37.29 8.986 11.71-1.93 25.04-9.386 31.75-19.411 15.42-22.998 11.13-51.704-10.42-69.025l.01-.01Zm1076.27 1697.2c-24.24-30.94-48.5-61.87-72.73-92.8-12.12-15.47-24.25-30.94-36.37-46.41-11.18-14.28-21.96-29.05-33.92-42.71-7.56-8.63-15.47-17.32-24.43-24.56-2.75-2.22-5.64-4.22-8.65-6.08-6.58-4.08-13.27-8.58-20.59-11.29-14.62-5.39-28.15-7.42-43.69-6.38-7.12.48-14.28 2.67-21.04 4.64-3.6 1.05-7.03 2.46-10.37 4.18-10.34 5.34-19.83 10.98-28.4 18.8-8.62 7.87-16.79 16.06-24.35 24.94a560.846 560.846 0 0 0-32.01 41.35 780.09 780.09 0 0 0-5.78 8.38c-22.28-70.47-44.56-140.92-66.87-211.38-9.4-29.71-18.83-59.42-28.4-89.08-3.68-11.42-15.27-22.13-25.99-26.76-10.98-4.74-26.2-5.52-37.3-.54-11.51 5.15-22.16 13.83-26.77 25.99-4.78 12.62-4.52 24.37-.54 37.29 32.68 105.84 66.34 211.4 99.62 317.06 9.37 29.73 18.72 59.47 28.1 89.2 2.03 3.67 4.07 7.34 6.1 11.01 2.94 3.07 5.89 6.14 8.83 9.2 8.68 6.96 19.42 10.33 30.4 10.42 19.41.15 37.74-11.19 45.59-29.31 9.21-21.25 19.69-41.9 31.38-61.88 9-14.52 18.61-28.65 28.86-42.31 9.44-12.58 19.22-25.25 30.19-36.62 2.42-2.07 4.92-4.04 7.52-5.86 3.06 2.3 5.96 4.78 8.75 7.42 10.69 12.02 20.2 25.16 30.09 37.78 12.53 16.01 25.05 32 37.58 48 25.25 32.25 50.48 64.53 75.75 96.78 8.03 10.27 19.86 17.79 32.93 19.62 11.76 1.64 26.64-1.57 36.04-9.13 10.09-8.12 18.36-19.64 19.62-32.93 1.19-12.58-1.14-25.82-9.13-36.03h-.02Zm565.55-1005.226c-14.09-.15-27.22-.07-40.88 3.328-13.06 3.238-25.64 6.707-37.58 12.964-24.98 13.073-46.19 29.575-64.04 51.604-15.01 18.531-26.76 40.809-33.56 63.678-4.22 14.183-7.86 28.566-9.63 43.268-1.77 14.734-1.9 29.734-1.52 44.544 1.28 50.14 17.61 99.55 37.48 145.16 20.69 47.48 44.32 93.75 66.78 140.4 13.11 27.23 26.22 54.46 39.34 81.69 9.62 20 19.41 39.98 25.8 61.27l.03.13c1.37 6.4 2.34 12.84 2.74 19.37v.23c-.21 2.55-.52 5.08-.96 7.6-.02.1-.04.19-.08.28-.52 1.4-1.09 2.78-1.7 4.14-.04.09-.09.18-.15.27-.84 1.18-1.72 2.34-2.63 3.46-.07.08-.14.16-.23.23a74.03 74.03 0 0 1-3.76 2.84c-.08.06-.17.11-.26.15a90.144 90.144 0 0 1-8.7 3.41l-.21.06c-7.22 1.39-14.54 2.11-21.9 2.35h-.13c-25.39-1.09-50.3-6.91-74.85-13.35-65.32-17.76-128.86-41.87-189.43-72.07-15.72-7.84-31.22-16.1-46.51-24.72-12.17-7.07-24.2-14.37-36.07-21.94-14.46-9.21-29.34-18.19-45.18-24.77-3.4-1.41-6.89-2.59-10.42-3.63-8.55-2.52-17.45-5.26-26.4-6.07-8.57-.78-17.8-1.17-26.34.48-13.99 2.7-23.11 6.56-35.15 13.78-2.21 1.33-5.62 3.81-7.57 5.51-5.37 4.69-10.78 9.95-14.84 15.81-6.65 9.62-12.04 20.15-15.24 31.4-4.47 15.67-8.05 31.39-9.42 47.65-2.34 27.81-.89 56.15 5.44 83.35 6.49 27.92 15.42 54.71 28.48 80.26 13.28 25.99 28.77 50.96 46.73 73.97 38.22 48.96 86.27 89.34 135.85 126.3 53.1 39.58 108.51 76.22 158.28 120.09 6.21 5.47 12.26 11.11 18.22 16.84 8.24 7.93 24.75 10.94 35.59 9.6 12.05-1.48 25.91-8.79 32.95-18.93 7.07-10.2 11.7-22.92 9.62-35.51 0-.05-.02-.1-.03-.15l-3.12-12.1c-.02-.07-.04-.14-.07-.21-3.4-8.23-8.63-15.08-15.69-20.53a.647.647 0 0 1-.09-.08c-64.9-62.51-142.39-109.13-212.3-165.5-16.69-13.46-32.99-27.48-48.36-42.44-23.38-24.12-44.26-50.66-61.48-79.52-11.09-20.35-20.21-41.72-26.61-64 0-.03-.02-.06-.02-.09-3.65-15.85-5.81-31.99-6.21-48.26v-.11c.49-12.49 2.04-24.91 4.74-37.11.01-.05.03-.1.04-.15a1.41 1.41 0 0 1 1.82-.9c6.78 2.47 13.32 5.55 19.7 8.97 11.38 6.83 22.46 14.18 33.86 20.98 18.54 11.04 37.33 21.71 56.4 31.79 31.73 16.78 64.34 31.89 97.66 45.27 33.02 13.25 66.73 24.79 100.95 34.54 33.27 9.49 67.58 19.76 102.23 22.77 35.14 3.06 71.09.1 102.21-17.64 15.91-9.07 30.45-21.06 40.08-36.92 10.77-17.74 18.63-37.16 19.32-58.19.34-10.32.45-20.72-.99-30.97-1.52-10.74-4.43-21.34-7.33-31.76-3.76-13.54-9.02-26.61-14.82-39.38-15.07-33.19-31.53-65.8-47.34-98.63-16.29-33.87-32.61-67.72-48.89-101.59-14.64-30.48-29.09-61.18-39.75-93.32-1.95-5.89-3.76-11.83-5.43-17.82-4.42-18.73-7.15-37.78-7.61-57.03v-.11c.47-12.9 2.02-25.726 4.87-38.32 0-.04.02-.09.03-.13 2.81-9.106 6.32-17.961 10.65-26.457.02-.05.05-.1.08-.14a150.33 150.33 0 0 1 15.14-19.84l.12-.12a142.39 142.39 0 0 1 18.45-14.173c.05-.03.1-.06.16-.09a122.887 122.887 0 0 1 17.14-7.006c.06-.02.13-.04.2-.05 4.03-.77 8.09-1.31 12.17-1.639h.22c5.3.469 10.47-.16 15.48-1.9.06-.02.11-.029.17-.039 6.52-1.12 12.4-3.839 17.63-8.146 9.64-7.347 17.88-20.41 18.99-32.694 1.16-12.724-1.23-26.447-9.68-36.552-7.8-9.325-19.95-18.86-32.7-18.99h.02ZM1408.22 648.366c-8.18-9.356-20.48-18.121-33.45-18.121-12.98 0-24.81 2.059-35.37 10.515-9.5 7.596-17.47 21.099-18.13 33.443-.67 12.434 2.09 25.727 10.52 35.362 8.17 9.356 20.47 18.121 33.45 18.121 12.98 0 24.8-2.059 35.37-10.515 9.5-7.596 17.47-21.099 18.13-33.443.67-12.434-2.09-25.727-10.52-35.362Zm1442.91 63.428c-10.92-27.756-31.82-53.363-57.87-68.176-13.21-7.516-26.3-14.113-40.99-18.091-15.04-4.088-30.29-7.366-45.83-8.805-28.37-2.629-57.51-1.21-85.78 1.969-25.69 2.888-51.03 8.156-75.83 15.452-44.35 13.043-86.41 31.254-125.44 55.432-4.15-28.336-10.54-56.252-20.24-83.358-14.33-40.03-38.54-74.913-70.46-102.839-15.03-13.143-32.05-23.078-49.71-32.274-14.57-7.586-30.02-13.353-45.94-17.351-39.02-9.805-79.25-12.933-118.93-4.328-75 16.262-142.99 64.688-182.77 130.445-1.52 2.509-3 5.038-4.45 7.576a304.538 304.538 0 0 0-14.38-20.859c-28.35-37.631-66.69-68.526-110.12-87.007-20.77-8.835-43.84-14.653-66.37-16.092-27.39-1.749-52.81 2.399-78.72 10.775-21.63 6.986-42.12 18.97-60.11 32.713-18.25 13.944-34.76 31.235-48.16 49.876-29.77 41.409-45.92 91.994-50.24 142.528-7.51 87.806 15.58 179.551 59.57 255.553 42.43 73.317 101.72 137.387 175.99 179.217 11.74 6.62 23.6 13.06 35.77 18.89 10.75 5.16 26.85 3.73 37.42-.98 10.96-4.87 21.91-15.58 25.77-27.14 4.01-12.02 4.83-25.75-.98-37.41-6.06-12.18-14.91-19.82-27.15-25.77-4.22-2.05-8.4-4.2-12.55-6.38-28.67-16.41-55.23-36.25-79.41-58.768a447.866 447.866 0 0 1-63.09-78.821c-16.44-28.016-29.78-57.721-39.63-88.685-8.04-28.566-13.07-57.892-14.66-87.527-.29-22.439 1.56-44.817 6.12-66.786 4.13-15.363 9.63-30.295 16.76-44.518a203.086 203.086 0 0 1 23.32-31.774c8.29-8.006 17.23-15.253 26.82-21.629 8.22-4.548 16.75-8.396 25.61-11.495a150.43 150.43 0 0 1 24.04-3.958c9.2.13 18.34 1.08 27.37 2.799 11.05 3.148 21.72 7.356 32.01 12.474 12.95 7.686 25.01 16.701 36.19 26.796a252.447 252.447 0 0 1 31.79 39.671c11.92 20.879 21.12 43.178 28.43 66.066 3.64 12.814 6.75 25.738 9.45 38.751-.28 27.666 2.74 55.542 8.95 82.149 2.95 12.624 6.71 25.048 10.64 37.391 3.44 10.795 16.98 22.509 27.39 25.977 10.57 3.529 20.96 4.038 31.7.82 24.03-7.206 37.58-30.125 34.66-54.843-3.85-32.573-8.07-65.747-14.36-98.43.78-15.543 2.74-30.995 5.94-46.267 4.85-18.231 11.49-35.902 20.04-52.714a256.674 256.674 0 0 1 31.44-42.769c12.18-11.984 25.48-22.708 39.84-32.004 12.88-7.286 26.36-13.353 40.4-18.061 12.84-3.378 25.9-5.567 39.15-6.476a216.34 216.34 0 0 1 42.16 4.248c13.68 3.738 26.92 8.765 39.59 15.112 10.77 6.407 20.88 13.753 30.25 22.069 7.88 8.196 14.94 17.051 21.22 26.537 7.8 13.913 13.98 28.585 18.93 43.758 9.1 32.883 13.8 67.396 15.42 101.469.06 3.778.06 7.556 0 11.334-18.63 22.259-33.75 47.257-42.25 74.563-4.56 14.633-8.01 29.935-8.92 45.278-1.17 19.82 8.04 38.09 25.64 47.706 8 4.367 15.98 6.317 25.09 6.017 11.39-.37 19.67-4.128 29.27-10.395 30.66-20 51.67-54.713 60.38-89.775 2.53-10.225 4.69-20.38 6.27-30.635 16.38-14.812 34.28-27.916 52.96-39.69 28.56-16.732 58.88-30.195 90.42-40.23 31.96-9.015 64.78-14.483 97.95-16.142 18.14-.28 36.26.64 54.08 4.088 7.28 2.059 14.38 4.628 21.23 7.826 3.6 2.289 7.05 4.778 10.35 7.496a97.652 97.652 0 0 1 6.63 8.266c2.36 4.568 4.38 9.276 6.12 14.113 2.73 11.175 4.18 22.569 4.86 34.053.51 38.991-4.51 78.281-13.01 116.302-10.33 41.12-25.23 81.159-45.01 118.683-13.6 23.89-29.42 46.46-48.01 66.73-12.45 12.33-25.96 23.48-40.65 33.06-11.7 6.6-23.93 12.1-36.67 16.41-15.02 3.94-30.35 6.24-45.85 7.19-26.35.15-52.51-3.3-78.23-8.95-37.67-9.56-74-23.47-110.29-37.26-42.77-16.25-85.53-31.22-130.26-41.16-79.49-17.66-170.45-10.13-236.67 41.08-42.57 32.91-71.48 86.75-62.57 141.36 2 12.24 9.43 24.4 19.42 31.75 9.86 7.28 25.08 11.55 37.3 8.99 26.19-5.48 45.19-29.44 40.75-56.71-.21-1.29-.39-2.59-.54-3.88.15-2.73.42-5.44.83-8.15 1.29-4.02 2.83-7.93 4.61-11.76 3.48-5.51 7.38-10.72 11.64-15.64 6.2-5.8 12.86-11 19.93-15.7 10.15-5.61 20.77-10.21 31.76-13.92 15.73-4.13 31.82-6.51 48.07-7.47 25.48-.2 50.78 2.87 75.67 8.29 53.27 13.54 103.77 35.65 155.5 53.97 30 10.64 60.48 19.43 91.69 25.86 30.92 6.38 61.68 8.33 93.2 6.95 57.29-2.49 112.57-25.12 156.38-61.91 42.31-35.52 73.39-80.85 98.28-129.72 26.63-52.31 43.93-109.362 53.65-167.163 4.56-27.217 7.22-54.893 7.38-82.509.18-31.884-2.56-62.789-14.33-92.724h-.03Zm-585.38-420.71c-8.13-9.315-20.37-18.031-33.29-18.031-12.92 0-24.68 2.049-35.21 10.465-9.45 7.556-17.39 21-18.04 33.284-.65 12.373 2.08 25.607 10.47 35.202 8.14 9.315 20.38 18.031 33.29 18.031 12.92 0 24.69-2.049 35.22-10.465 9.44-7.556 17.38-20.999 18.03-33.283.66-12.374-2.08-25.607-10.47-35.203Zm-180.72 56.162c.4-4.258-.27-8.345-2-12.263-1.31-6.177-4.06-11.705-8.26-16.592-3.03-2.919-6.07-5.827-9.1-8.746-7.21-5.257-15.27-8.346-24.15-9.275-.98-.17-2.03-.08-3.02-.09-6.47-.87-12.67-.13-18.61 2.209-6.18 1.309-11.72 4.068-16.62 8.266-5.33 3.948-9.3 8.895-11.9 14.842-3.68 5.527-5.73 11.684-6.16 18.461l.42 12.634c1.42 8.395 4.78 15.922 10.06 22.588 3.04 2.919 6.08 5.837 9.11 8.756 7.24 5.267 15.3 8.356 24.2 9.285 5.2-.02 10.6.38 15.66-.499 6.39-.82 12.14-3.089 17.24-6.807 5.7-2.849 10.39-6.957 14.07-12.324 2.09-3.818 4.17-7.636 6.26-11.454 2.64-6.167 3.57-12.494 2.81-19.001l-.01.01Zm335.32 37.741c-8.14-9.325-20.39-18.05-33.31-18.05-12.91 0-24.7 2.048-35.23 10.474-9.46 7.566-17.39 21.01-18.05 33.304-.66 12.383 2.08 25.627 10.47 35.232 8.15 9.325 20.4 18.051 33.32 18.051 12.91 0 24.7-2.049 35.24-10.475 9.45-7.566 17.39-21.009 18.05-33.303.66-12.384-2.08-25.627-10.48-35.223l-.01-.01Zm1191.54 246.397c-3.05-79.02-24.13-158.311-59.37-229.055-18.43-37.002-40.72-72.574-66.52-104.898-14.14-17.701-29.41-34.133-45.91-49.665-6.76-6.367-13.96-12.304-21.77-17.341-10.88-7.027-22.74-13.773-35.2-17.651-28.81-8.976-62.24-10.515-89.72 3.968-15.39 8.106-25.91 17.651-37.67 30.155-3.9 4.137-7.59 8.455-11.35 12.713a95.052 95.052 0 0 1-1.69-2.299c-1.98-3.838-3.7-7.786-5.19-11.854-9.61-37.961-7.69-77.471-12.8-116.142-2.72-20.569-7.89-41.06-15.35-60.41-7.1-18.41-17.59-36.871-31.27-51.184-17.14-17.95-37.48-32.784-61.53-40.03-24.53-7.396-49.17-9.555-74.63-6.147-42.85 5.727-83.16 28.916-114.28 58.201-29.14 27.406-52.09 60.05-79.14 89.285-8.59 8.516-17.71 16.442-27.72 23.229a121.738 121.738 0 0 1-15.73 7.126 108.87 108.87 0 0 1-13.77 2.259 122.45 122.45 0 0 1-17.21-1.789 141.461 141.461 0 0 1-20.86-8.056c-8.03-4.917-15.53-10.545-22.59-16.792-10-10.394-18.77-21.819-26.6-33.943-17.75-30.944-29.7-64.687-41.81-98.14-13.78-38.091-28.83-74.743-51-108.826-42.07-64.668-117.85-112.494-197.15-94.553-18.97 4.288-37.34 10.865-54.03 20.88-9.83 5.897-19.49 11.794-28.33 19.1-8.83 7.307-16.82 15.682-24.53 24.128-28.08 30.775-43.49 71.894-50.17 112.464-6.27 37.99-3.32 78.65 6.58 115.772 10.63 39.81 26.67 77.062 47.45 112.604 19.93 34.063 40.98 69.875 68.4 98.58 17.95 18.791 36.36 33.224 59.46 45.058 7.62 3.898 15.58 7.016 23.85 9.185 12.03 3.159 24.27 6.167 36.78 6.107 12.07-.05 23.89-.42 35.51-3.788 12.71-3.688 23.19-8.076 31.37-19.18 7.19-9.745 11.4-24.778 8.88-36.842-2.54-12.124-8.59-24.268-19.19-31.364-10.2-6.827-24.48-12.364-36.85-8.876a85.597 85.597 0 0 1-13.55 2.649 99.44 99.44 0 0 1-11.54-1.219 121.49 121.49 0 0 1-16.24-6.307c-7.19-4.488-13.91-9.605-20.25-15.243-20.69-21.329-37.21-46.766-52.76-72.024-17.45-29.195-32.74-59.67-43.26-92.054-5.02-18.3-8.31-36.941-9.49-55.882-.04-15.082 1.3-30.095 4.24-44.887 3.1-11.155 7.16-21.96 12.26-32.344a159.101 159.101 0 0 1 16.25-22.189 160.204 160.204 0 0 1 20.96-16.832 149.32 149.32 0 0 1 21.63-9.715 131.185 131.185 0 0 1 19.05-3.188c5.89.16 11.74.74 17.53 1.749 6.61 1.989 13.01 4.498 19.22 7.476 8.42 5.168 16.26 11.115 23.64 17.681 10.54 10.895 19.84 22.869 28.07 35.583 20.24 35.212 32.63 74.222 46.68 112.144 15.5 41.819 34.27 83.778 63.32 118.131 32.64 38.6 77.9 67.396 129.03 72.323 46.8 4.518 91.99-13.503 126.66-44.407 31.22-27.807 54.85-62.309 83.06-92.834 10.98-10.865 22.79-20.82 35.67-29.345 7.89-4.378 16.07-8.146 24.57-11.175a133.174 133.174 0 0 1 20.11-3.318c5.87.14 11.69.68 17.48 1.66 4.16 1.288 8.22 2.818 12.18 4.607a98.25 98.25 0 0 1 8.97 6.617c3.24 3.578 6.21 7.366 8.96 11.334 3.97 7.416 7.24 15.142 9.96 23.098 11.46 44.308 7.04 90.755 16.16 135.483 5.56 27.296 15.27 55.342 34.55 76.201 22.43 24.268 55.13 41.69 89.08 33.334 16.54-4.068 32.05-11.564 44.39-23.479 8.73-8.415 16.48-17.601 24.58-26.546a81.769 81.769 0 0 1 5.85-5.008l1.35-.599c1.23-.23 2.47-.42 3.71-.58 2.43.15 4.84.4 7.24.759a94.844 94.844 0 0 1 9.87 3.879c7.28 4.607 14.04 9.915 20.44 15.692 24.7 24.847 46.03 53.453 64.6 83.108a546.626 546.626 0 0 1 50.93 114.293c11.62 40.82 18.46 82.869 20.1 125.307.44 11.475 10.64 25.268 19.41 31.734 9.86 7.267 25.07 11.535 37.28 8.986 12.27-2.569 24.55-8.686 31.74-19.4 2.12-3.868 4.23-7.746 6.35-11.614 3.17-8.326 4.05-16.882 2.64-25.668l-.03.04ZM360.31 2008.78c-8.868-36.72-24.944-70.79-48.168-100.67-19.965-25.69-45.319-48.65-73.722-64.69-15.626-8.83-31.372-16.99-48.348-22.9-16.835-5.87-34.421-10.1-51.987-13.06-30.932-5.24-63.454-4.89-94.426-.15-31.112 4.75-62.464 14.47-90.367 29.12-15.626 8.21-30.923 17.62-44.87 28.48-13.736 10.69-26.013 23.13-37.71 35.98-21.134 23.23-37.63 50.9-50.317 79.54-12.637 28.53-20.665 59.71-24.464 90.62-3.809 31.01-2.959 63.4 2.699 94.13 11.917 64.74 45.089 122.94 92.317 168.34 11.377 10.94 23.124 21.31 35.921 30.58 14.657 10.61 30.303 19.47 46.259 27.96 28.593 15.23 59.175 24.8 90.847 31.28 13.357 2.73 26.913 4.4 40.53 5.1 12.657.65 25.294-2.46 35.351-10.51 9.488-7.59 17.456-21.08 18.115-33.41.67-12.43-2.089-25.71-10.507-35.34-8.488-9.72-20.175-17.3-33.422-18.12-13.936-.86-27.763-2.77-41.41-5.64-21.114-5.56-41.529-13.44-60.934-23.44-19.035-11-36.82-23.99-53.027-38.84-13.856-13.98-26.253-29.31-36.92-45.85-8.638-15.05-15.776-30.89-21.225-47.36-4.699-17.42-7.538-35.25-8.598-53.26-.15-20.08 1.88-40.1 5.998-59.75 5.02-18.97 11.998-37.36 20.915-54.84 8.958-15.4 19.445-29.83 31.432-43.02 10.948-10.69 22.875-20.28 35.712-28.63 14.326-8.14 29.422-14.77 45.088-19.92 17.266-4.65 34.941-7.5 52.797-8.57 18.115-.11 36.181 1.63 53.917 5.3 15.616 4.19 30.752 9.91 45.188 17.2a219.752 219.752 0 0 1 35.491 26.06 225.085 225.085 0 0 1 27.483 34.22c6.469 11.45 11.867 23.44 16.096 35.89 2.94 11.21 4.879 22.63 5.709 34.19-.09 10.92-1.21 21.76-3.289 32.48a180.897 180.897 0 0 1-12.087 31.58c-5.249 8.71-11.217 16.92-17.936 24.55a151.798 151.798 0 0 1-19.855 15.99 144.573 144.573 0 0 1-20.964 9.27 155.145 155.145 0 0 1-25.344 4.11c-8.678-.11-17.306-.95-25.844-2.53a138.719 138.719 0 0 1-20.944-7.98c-5.329-3.31-10.398-7-15.167-11.07-3.969-4.3-7.608-8.88-10.927-13.72-3.17-5.9-5.878-12.01-8.128-18.32a136.37 136.37 0 0 1-3.429-20.77c.13-6.42.74-12.8 1.85-19.12a111.96 111.96 0 0 1 5.588-14.65c.9-1.43 1.83-2.84 2.8-4.23 7.438-10.65 11.107-24.3 8.977-37.24-1.919-11.7-9.377-25-19.385-31.71-10.757-7.2-24.204-11.7-37.25-8.97-12.397 2.59-24.285 8.73-31.713 19.38-42.11 60.34-36.77 142.59 6.249 200.91 3.919 5.32 8.298 10.22 13.017 14.83 7.718 7.54 15.336 14.92 24.263 21.01 14.497 9.89 30.783 18.32 47.668 23.34 34.392 10.23 71.903 12.84 106.784 3.18 10.387-2.88 20.865-5.92 30.772-10.22 9.958-4.31 19.145-9.96 28.333-15.71 15.526-9.71 28.403-22.3 40.68-35.82 12.287-13.53 21.204-28.95 29.752-45.02 6.799-12.77 11.987-26.39 15.456-40.43 4.449-18.02 8.148-35.74 8.158-54.36 0-18.45-1.189-36.82-5.528-54.79v.01Zm3999 0c-8.87-36.72-24.94-70.79-48.17-100.67-19.96-25.69-45.32-48.65-73.72-64.69-15.63-8.83-31.37-16.99-48.35-22.9-16.83-5.87-34.42-10.1-51.98-13.06-30.94-5.24-63.46-4.89-94.43-.15-31.11 4.75-62.47 14.47-90.37 29.12-15.62 8.21-30.92 17.62-44.87 28.48-13.73 10.69-26.01 23.13-37.71 35.98-21.13 23.23-37.63 50.9-50.32 79.54-12.63 28.53-20.66 59.71-24.46 90.62-3.81 31.01-2.96 63.4 2.7 94.13 11.92 64.74 45.09 122.94 92.32 168.34 11.37 10.94 23.12 21.31 35.92 30.58 14.65 10.61 30.3 19.47 46.26 27.96 28.59 15.23 59.17 24.8 90.84 31.28 13.36 2.73 26.92 4.4 40.53 5.1 12.66.65 25.3-2.46 35.35-10.51 9.49-7.59 17.46-21.08 18.12-33.41.67-12.43-2.09-25.71-10.51-35.34-8.49-9.72-20.17-17.3-33.42-18.12-13.94-.86-27.76-2.77-41.41-5.64-21.11-5.56-41.53-13.44-60.93-23.44-19.04-11-36.82-23.99-53.03-38.84-13.86-13.98-26.25-29.31-36.92-45.85-8.64-15.05-15.78-30.89-21.23-47.36-4.69-17.42-7.53-35.25-8.59-53.26-.15-20.08 1.88-40.1 6-59.75 5.01-18.97 11.99-37.36 20.91-54.84 8.96-15.4 19.44-29.83 31.43-43.02 10.95-10.69 22.88-20.28 35.71-28.63 14.33-8.14 29.43-14.77 45.09-19.92 17.27-4.65 34.94-7.5 52.8-8.57 18.11-.11 36.18 1.63 53.93 5.3 15.61 4.19 30.75 9.91 45.18 17.2 12.69 7.48 24.55 16.2 35.49 26.06a225.13 225.13 0 0 1 27.49 34.22c6.47 11.45 11.87 23.44 16.09 35.89 2.94 11.21 4.88 22.63 5.71 34.19-.09 10.92-1.21 21.76-3.29 32.48a180.87 180.87 0 0 1-12.08 31.58c-5.25 8.71-11.22 16.92-17.94 24.55a152.485 152.485 0 0 1-19.85 15.99c-6.74 3.65-13.74 6.73-20.98 9.27-8.33 2.07-16.78 3.44-25.34 4.11-8.68-.11-17.31-.95-25.85-2.53-7.18-2.1-14.18-4.75-20.94-7.98-5.33-3.31-10.4-7-15.17-11.07-3.97-4.3-7.61-8.88-10.92-13.72-3.17-5.9-5.88-12.01-8.13-18.32-1.68-6.83-2.82-13.76-3.43-20.77.13-6.42.74-12.8 1.85-19.12 1.52-5.01 3.38-9.89 5.59-14.65.9-1.43 1.83-2.84 2.8-4.23 7.43-10.65 11.1-24.3 8.97-37.24-1.92-11.7-9.37-25-19.38-31.71-10.76-7.2-24.21-11.7-37.25-8.97-12.4 2.59-24.29 8.73-31.71 19.38-42.11 60.34-36.77 142.59 6.24 200.91 3.92 5.32 8.3 10.22 13.02 14.83 7.72 7.54 15.34 14.92 24.27 21.01 14.49 9.89 30.78 18.32 47.66 23.34 34.39 10.23 71.91 12.84 106.79 3.18 10.38-2.88 20.86-5.92 30.77-10.22 9.96-4.31 19.14-9.96 28.33-15.71 15.53-9.71 28.4-22.3 40.68-35.82 12.29-13.53 21.21-28.95 29.75-45.02 6.8-12.77 11.99-26.39 15.46-40.43 4.45-18.02 8.15-35.74 8.16-54.36 0-18.45-1.19-36.82-5.53-54.79v.01Zm-2455.55 327.24c-2.57-12.27-8.68-24.57-19.41-31.75-3.87-2.12-7.75-4.23-11.62-6.35-8.33-3.17-16.88-4.05-25.68-2.64a1554.917 1554.917 0 0 0-320.22 51.04c-107.58 28.9-212.3 67.9-311.69 118.28-26.89 13.62-53.22 28.2-79.39 43.16-23.91 13.65-48.15 27.05-74.31 35.85-8.85 2.32-17.85 4.03-26.97 4.84-6.78-.16-13.5-.83-20.16-2.02-5.51-1.65-10.89-3.67-16.11-6.09a98.334 98.334 0 0 1-9.407-6.82 83.14 83.14 0 0 1-4.599-5.69c-.87-1.77-1.66-3.57-2.399-5.4-.51-2.46-.91-4.93-1.21-7.43.19-3.69.58-7.33 1.18-10.97 2.499-8.25 5.798-16.19 9.647-23.92 12.938-21.93 29.118-41.63 44.758-61.69 17.77-22.79 35.17-45.88 51.63-69.63 34.73-50.14 66.17-103.96 87.1-161.42 22.27-61.17 32.85-125.9 27.39-190.9-4.76-56.7-25.29-111.08-57.85-157.6-30.48-43.55-74.85-79.52-124.96-97.84-58.7-21.45-124.104-20.03-183.609-2.66-107.533 31.4-202.899 102.6-264.194 196.48-66.053 101.16-92.887 225.69-73.082 345.06 2.23 13.45 5.159 26.76 8.658 39.93 3.359 12.64 8.338 23.41 19.225 31.43 9.768 7.2 24.834 11.43 36.931 8.9 12.157-2.54 24.324-8.61 31.442-19.22 6.948-10.37 12.127-24.34 8.898-36.92-7.478-29.12-11.937-58.87-13.427-88.88-.58-35.08 2.91-70.05 10.428-104.33 8.398-32.81 20.485-64.53 36.211-94.54 17.005-29.82 37.45-57.51 60.844-82.65 23.805-23.95 50.198-45.15 78.771-63.18 25.273-14.81 51.957-27.11 79.84-36.13 20.785-5.76 42.009-9.59 63.554-10.91 16.046-.08 32.002 1.33 47.738 4.48a205.511 205.511 0 0 1 37.362 14.29c12.75 7.56 24.62 16.39 35.63 26.31 12.23 12.45 23.06 26.11 32.51 40.79a274.434 274.434 0 0 1 22.43 50.41c5.56 20.49 8.72 41.52 9.89 62.73.3 28.56-2.97 56.98-9.02 84.9-10.14 39.74-25.74 77.7-44.9 113.93-32.75 58.48-73.964 110.78-114.664 163.84-24.324 31.71-45.019 66.16-52.807 105.78-7.198 36.6 3.369 78.9 29.283 106.25 25.923 27.38 59.385 43.33 96.668 48.46 36.79 5.06 74.45-3.97 108.27-18.06 30.92-12.89 59.34-31 88.58-47.15 29.55-16.32 59.64-31.67 90.22-46.02 67.21-31.54 136.69-58.17 207.7-79.86 90.43-26.68 183.18-45.33 276.94-55.3 27.03-2.87 54.11-5.01 81.24-6.46 11.58-.62 25.19-10.49 31.77-19.41 7.27-9.86 11.53-25.07 8.98-37.29l-.03-.01Z"/>
    <path fill="#fff" d="M2014.53 2119.47c-90.88-73.05-182.86-144.76-274.3-217.09-25.79-20.41-51.59-40.8-77.4-61.19-3.86-2.11-7.73-4.23-11.6-6.34-6.25-2.67-12.67-3.62-19.27-2.84-10.02.33-21.67 3.32-29.25 10.39-53.06 49.48-103.54 101.88-150.91 156.83-44.99 52.19-87.12 106.88-126.04 163.74-21.96 32.07-43.01 64.81-62.67 98.35-4.23 5.35-6.83 11.31-7.81 17.91-2.06 6.19-2.43 12.54-1.1 19.07 1.91 11.61 9.3 24.82 19.25 31.49 10.68 7.15 24.04 11.61 36.99 8.9 11.86-2.48 24.95-8.5 31.49-19.25 57.71-94.64 122.19-184.73 195.02-268.38 19.35-22.22 39.25-43.96 59.62-65.26 13.08-13.47 26.33-26.74 39.8-39.8 80.7 63.94 161.43 127.83 242.15 191.74 25.78 20.41 51.46 40.97 77.4 61.19 9.94 7.75 24.98 11.01 37.29 8.99 11.71-1.92 25.04-9.39 31.75-19.41 15.42-23 11.13-51.71-10.42-69.03l.01-.01Zm1597.36 510.91c-3.05-79.02-24.13-158.31-59.37-229.05-18.43-37-40.72-72.57-66.52-104.9-14.14-17.7-29.41-34.13-45.91-49.66-6.76-6.37-13.96-12.31-21.77-17.34-10.88-7.03-22.74-13.78-35.2-17.66-28.81-8.97-62.24-10.51-89.72 3.97-15.39 8.11-25.91 17.65-37.67 30.16-3.9 4.14-7.59 8.45-11.35 12.71-.57-.76-1.14-1.52-1.69-2.3-1.98-3.84-3.7-7.78-5.19-11.85-9.61-37.96-7.69-77.47-12.8-116.14-2.72-20.57-7.89-41.06-15.35-60.41-7.1-18.41-17.59-36.88-31.27-51.19-17.14-17.95-37.48-32.78-61.53-40.03-24.53-7.39-49.17-9.55-74.63-6.15-42.85 5.73-83.16 28.92-114.28 58.21-29.14 27.4-52.09 60.05-79.14 89.28-8.59 8.52-17.71 16.44-27.72 23.23-5.07 2.74-10.31 5.13-15.73 7.13-4.55 1.05-9.13 1.79-13.77 2.25-5.79-.19-11.52-.78-17.21-1.78-7.17-2.13-14.12-4.83-20.86-8.06-8.03-4.92-15.53-10.54-22.59-16.79-10-10.4-18.77-21.82-26.6-33.94-17.75-30.95-29.7-64.69-41.81-98.15-13.78-38.09-28.83-74.74-51-108.82-42.07-64.67-117.85-112.5-197.15-94.55-18.97 4.28-37.34 10.86-54.03 20.88-9.83 5.89-19.49 11.79-28.33 19.1-8.83 7.3-16.82 15.68-24.53 24.12-28.08 30.78-43.49 71.9-50.17 112.47-6.27 37.99-3.32 78.65 6.58 115.77 10.63 39.81 26.67 77.06 47.45 112.6 19.93 34.07 40.98 69.88 68.4 98.58 17.95 18.79 36.36 33.23 59.46 45.06 7.62 3.9 15.58 7.02 23.85 9.19 12.03 3.16 24.27 6.16 36.78 6.1 12.07-.05 23.89-.42 35.51-3.78 12.71-3.69 23.19-8.08 31.37-19.18 7.19-9.75 11.4-24.78 8.88-36.85-2.54-12.12-8.59-24.26-19.19-31.36-10.2-6.83-24.48-12.36-36.85-8.88a85.6 85.6 0 0 1-13.55 2.65c-3.88-.18-7.71-.59-11.54-1.22-5.57-1.71-10.97-3.81-16.24-6.3-7.19-4.49-13.91-9.61-20.25-15.25-20.69-21.33-37.21-46.76-52.76-72.02-17.45-29.2-32.74-59.67-43.26-92.05-5.02-18.3-8.31-36.95-9.49-55.89-.04-15.08 1.3-30.09 4.24-44.88 3.1-11.16 7.16-21.96 12.26-32.35 4.78-7.86 10.19-15.26 16.25-22.19 6.51-6.18 13.5-11.81 20.96-16.83 6.96-3.81 14.16-7.05 21.63-9.71 6.28-1.53 12.63-2.6 19.05-3.19 5.89.16 11.74.74 17.53 1.75 6.61 1.99 13.01 4.5 19.22 7.47 8.42 5.17 16.26 11.12 23.64 17.69 10.54 10.89 19.84 22.86 28.07 35.58 20.24 35.21 32.63 74.22 46.68 112.14 15.5 41.82 34.27 83.78 63.32 118.13 32.64 38.6 77.9 67.4 129.03 72.33 46.8 4.51 91.99-13.51 126.66-44.41 31.22-27.81 54.85-62.31 83.06-92.84 10.98-10.86 22.79-20.82 35.67-29.34 7.89-4.38 16.07-8.15 24.57-11.18 6.62-1.61 13.33-2.72 20.11-3.31 5.87.14 11.69.68 17.48 1.66 4.16 1.29 8.22 2.81 12.18 4.6 3.12 2.04 6.1 4.24 8.97 6.62 3.24 3.58 6.21 7.37 8.96 11.33 3.97 7.42 7.24 15.15 9.96 23.1 11.46 44.31 7.04 90.76 16.16 135.49 5.56 27.29 15.27 55.34 34.55 76.2 22.43 24.26 55.13 41.69 89.08 33.33 16.54-4.07 32.05-11.56 44.39-23.48 8.73-8.41 16.48-17.6 24.58-26.54 1.88-1.76 3.82-3.44 5.85-5.01l1.35-.6c1.23-.23 2.47-.42 3.71-.58 2.43.15 4.84.4 7.24.76a94.85 94.85 0 0 1 9.87 3.88c7.28 4.6 14.04 9.91 20.44 15.69 24.7 24.85 46.03 53.45 64.6 83.11A546.556 546.556 0 0 1 3494.4 2521c11.62 40.82 18.46 82.87 20.1 125.31.44 11.47 10.64 25.26 19.41 31.73 9.86 7.27 25.07 11.54 37.28 8.99 12.27-2.57 24.55-8.69 31.74-19.4 2.12-3.87 4.23-7.75 6.35-11.62 3.17-8.32 4.05-16.88 2.64-25.67l-.03.04ZM3316.23 948.686c-26.62-84.978-53.92-169.745-80.9-254.613-27.08-85.177-54.16-170.365-81.25-255.542-15.2-47.816-30.34-95.652-45.64-143.429-2.18-3.588-4.37-7.176-6.55-10.764-3.98-5.388-8.98-9.395-15-12.024-9.17-5.008-20.9-8.196-31.42-5.797-116.22 26.427-229.95 64.468-337.98 114.872-29.38 13.713-58.37 28.296-86.78 43.938-11.58 6.377-20.86 14.403-25.75 27.137-4.3 11.194-4.46 26.466.98 37.391 5.63 11.314 14.77 21.629 27.14 25.747 11.81 3.938 26.01 5.078 37.4-.979 75.4-40.1 153.36-75.003 233.99-103.239 21.24-7.436 42.64-14.393 64.18-20.949 20.52-6.047 41.16-11.724 61.9-16.962 22.85 72.134 45.85 144.208 68.76 216.322l81.23 255.552c15.2 47.816 30.25 95.683 45.64 143.439 3.63 11.264 16.83 21.914 27.37 25.964 11.28 4.33 26.69 4.5 37.71-.99 11.41-5.67 21.81-14.889 25.97-27.353l3.05-12.864c.81-8.635-.54-16.911-4.04-24.847l-.01-.01ZM2232.59 1491.73c22.04-54.07 37.09-111.06 45.94-168.74 1.85-12.04-3.51-26.86-11.09-36.01-7.7-9.31-21.03-17-33.31-17.63-12.73-.65-26.29 2.26-36.02 11.08-10.01 9.07-15.58 19.88-17.64 33.3-2.12 13.85-4.7 27.61-7.65 41.3-12.85 54.37-32.2 107.04-57.56 156.82-9.16 17.1-18.98 33.82-29.54 50.09-8.65 13.33-17.61 26.49-27.94 38.56-5.32 5.33-10.97 10.29-17.08 14.69a88.8 88.8 0 0 1-7.6 3.54c-1.29.25-2.58.47-3.88.65-1.08-.08-2.15-.17-3.23-.3-.98-.33-1.94-.68-2.9-1.05-1.39-.92-2.76-1.89-4.07-2.91-3.82-4.15-7.26-8.62-10.45-13.28-12.51-21.64-21.62-45.1-33.81-66.92-8.44-15.09-17.63-30.54-29.58-43.2-15.18-16.1-32.4-29.01-53.29-36.83-39.35-14.72-84.46-8.45-121.62 9.58-38.69 18.78-68.97 48.16-93.6 83.03-25.75 36.44-45.61 77.03-74.96 110.84-10.58 10.7-22.19 20.25-34.7 28.62-14.56 8.46-29.94 15.33-45.92 20.65a262.967 262.967 0 0 1-53.61 8.74c-17.17.1-34.31-1.48-51.16-4.79-15.7-4-30.92-9.54-45.5-16.6-15.88-8.85-30.72-19.4-44.4-31.37-14.62-14.25-27.58-30.06-38.82-47.09a294.316 294.316 0 0 1-26.26-58.04c-5.15-18.82-8.4-38.1-9.56-57.58-.14-18.49 1.62-36.92 5.22-55.05 4.33-17.16 10.33-33.83 18.06-49.76 7.52-13.45 16.3-26.14 26.36-37.81 8.98-9.07 18.75-17.34 29.3-24.54 10.24-5.83 21-10.64 32.16-14.44a196.55 196.55 0 0 1 35.91-5.89c11.27.02 22.49 1.01 33.58 3.05 9.41 2.51 18.57 5.8 27.39 9.91 7.32 4.24 14.26 9.06 20.76 14.48 4.89 5.04 9.35 10.43 13.39 16.18 4 7.21 7.34 14.72 10.08 22.5 2.22 8.77 3.67 17.68 4.36 26.7-.09 8.46-.85 16.89-2.33 25.22-1.92 6.95-4.35 13.74-7.32 20.29-3.07 5.17-6.5 10.1-10.31 14.76-3.55 3.38-7.31 6.53-11.28 9.41-3.85 2.03-7.82 3.81-11.9 5.33-5.21 1.21-10.48 2.05-15.8 2.53-6.61-.14-13.19-.79-19.7-1.92a137.23 137.23 0 0 1-20.24-7.39c-5.62-3.31-10.98-7.02-16.02-11.16-3.28-3.44-6.33-7.08-9.13-10.93a91.238 91.238 0 0 1-4.57-10.01 94.17 94.17 0 0 1-1.9-12.43c-.99-12.01-10.62-25.37-20.17-32.06-9.61-6.73-24.15-10.58-35.83-8.15-12.53 2.6-24.99 9.03-32.07 20.16l-5.84 11.2c-2.88 8.01-3.66 16.21-2.32 24.62 1.09 14.89 5.48 30.13 11.86 43.59 6.29 13.26 14.74 26.32 24.97 36.95 21.15 21.97 47.47 39.27 77.01 47.59 14.49 4.08 29.61 7.34 44.73 7.63 15.17.29 30.64-.43 45.33-4.5 9.07-2.51 18.3-5.11 26.89-9.05 8.92-4.1 17.37-9.51 25.42-15.06 13.57-9.34 25.47-22.08 35.12-35.32 19.44-26.67 30.67-60.36 32.88-93.16 2.26-33.56-3.46-68.34-17.76-98.89-14.72-31.48-38.57-59.25-68.24-77.53-30.55-18.81-65.53-30.24-101.44-32.23-36.45-2.02-72.69 3.98-106.5 17.74-36.09 14.7-66.11 39.4-91.37 68.62-10.49 12.14-19.59 25.48-27.25 39.58-9.54 17.56-18.13 35.39-24.22 54.44-6.12 19.17-10.57 39.13-13.13 59.09-2.57 19.97-2.44 39.95-1.41 60.04 1.74 33.84 10.22 67.42 22.47 98.92 12.34 31.78 30.39 62.11 51.89 88.54 12.14 14.91 25.95 28.19 40.32 40.94 11.23 9.94 23.31 18.94 36.1 26.77 15.96 9.77 32.89 18.5 50.37 25.2 16.83 6.46 34.41 10.71 52.08 14.17 31.79 6.21 65.29 6.22 97.3 1.71 31.9-4.49 64.07-14.32 92.65-29.24 16.2-8.46 31.96-18.33 46.34-29.63 15.01-11.78 28.24-25.72 40.58-40.22 24.65-28.95 42.54-62.74 63.31-94.41 8.52-12.98 17.55-25.72 27.72-37.48 7.84-7.84 16.42-14.88 25.59-21.13 8.01-4.54 16.36-8.42 25.03-11.49 5.52-1.35 11.1-2.33 16.75-2.88 3.52.12 7.03.42 10.52.93 2.58.8 5.11 1.72 7.58 2.76a90.28 90.28 0 0 1 7.9 5.6c5.09 5.39 9.63 11.25 13.79 17.39 7.3 12.6 13.51 25.79 19.76 38.93 8.61 18.08 17.83 35.46 28.87 52.22 25.23 38.31 70.82 62.15 117.07 53.34 48.54-9.24 83.77-46.95 110.35-86.14 29.3-43.18 54.08-89.93 73.77-138.25l-.03-.03Z"/>
    <path fill="#fff" d="M3119.56 873.383c-9.29-21.679-19.76-42.918-29.67-64.328-9.93-21.429-19.85-42.848-29.78-64.277-19.84-42.849-39.69-85.708-59.55-128.556-11.2-24.138-22.37-48.286-33.66-72.374-5.37-11.454-15.16-21.109-27.07-25.677-11.15-4.288-26.39-4.448-37.29.979-11.28 5.618-21.57 14.733-25.68 27.057-4.07 12.204-4.49 25.327.98 37.281 39.3 85.887 79.23 171.485 118.91 257.202 11.17 24.118 21.77 48.605 33.63 72.384 5.74 11.514 14.89 21.019 27.1 25.707 11.17 4.288 26.43 4.447 37.34-.98 11.3-5.627 21.59-14.752 25.71-27.086 4.13-12.394 4.25-25.138-.98-37.332h.01Zm259.13-402.069-6.51-10.694c-5.54-6.867-12.43-11.894-20.67-15.093-6.2-2.648-12.58-3.588-19.11-2.818-6.37-.33-12.49.939-18.34 3.798-6.05 2.429-11.08 6.117-15.09 11.074-4.95 4.348-8.52 9.715-10.7 16.092-3.14 8.256-4.01 16.742-2.62 25.457.02.37.03.74.05 1.11.06 1.639.11 3.278.18 4.907.82 6.397 3.1 12.144 6.82 17.252 2.85 5.707 6.96 10.395 12.34 14.073 3.82 2.089 7.65 4.178 11.47 6.267 6.17 2.638 12.52 3.578 19.03 2.808 4.26.4 8.35-.27 12.27-1.999 6.18-1.309 11.72-4.058 16.62-8.266 2.92-3.038 5.84-6.067 8.76-9.105 5.26-7.226 8.35-15.282 9.27-24.178.09-2.009.14-4.028.23-6.037.8-8.576-.54-16.792-4-24.668v.02Zm11.59 225.727c-8.16-9.335-20.42-18.08-33.37-18.08-12.95 0-24.74 2.048-35.29 10.494-9.47 7.576-17.43 21.05-18.09 33.364-.66 12.403 2.09 25.667 10.5 35.282 8.16 9.335 20.43 18.081 33.37 18.081 12.95 0 24.75-2.049 35.29-10.495 9.47-7.576 17.43-21.049 18.09-33.363.66-12.404-2.09-25.667-10.5-35.283Zm92.96 959.999c-8.16-9.33-20.42-18.07-33.35-18.07-12.94 0-24.74 2.05-35.28 10.49-9.47 7.57-17.42 21.03-18.08 33.34-.66 12.39 2.09 25.66 10.49 35.27 8.16 9.34 20.41 18.07 33.35 18.07 12.94 0 24.73-2.05 35.28-10.48 9.47-7.58 17.42-21.04 18.08-33.35.66-12.39-2.09-25.65-10.49-35.27ZM904.414 1367.12c.87-6.52.13-12.77-2.22-18.76-1.319-6.24-4.099-11.83-8.338-16.77-7.628-9.53-21.184-17.53-33.591-18.2-12.487-.67-25.844 2.1-35.521 10.57-9.318 8.13-18.386 20.63-18.206 33.58 1.12 78.79 2.05 157.59 3.439 236.38-.869 6.49-.13 12.72 2.21 18.68 1.31 6.21 4.079 11.78 8.308 16.7 7.598 9.48 21.095 17.46 33.441 18.12 12.427.67 25.734-2.09 35.372-10.52 9.307-8.12 18.245-20.52 18.125-33.43-.76-78.78-1.979-157.56-3.019-236.34v-.01Zm310.916-176.43c-1.92-11.65-9.35-24.91-19.33-31.6-10.72-7.19-24.12-11.66-37.13-8.95-12.99 2.72-23.04 9.11-31.61 19.33-54.26 64.65-98.57 138.13-131.279 215.92-8.848 21.05-16.996 42.49-23.744 64.32-3.859 12.48-4.459 25.15.98 37.37 4.878 10.94 15.566 21.88 27.123 25.73 12 4 25.72 4.82 37.38-.98 11.36-5.64 21.55-14.76 25.74-27.11 15.34-45.18 33.56-88.99 56.01-131.07 24.9-44.58 53.97-86.77 86.9-125.82 7.9-9.37 10.89-25.34 8.95-37.13l.01-.01Zm-51.27-194.958c-12.47-42.529-25.67-84.847-38.55-127.256-11.86-39.041-23.28-78.251-35.74-117.102-3.42-10.664-16.73-22.209-27.03-25.637-10.43-3.478-20.69-3.988-31.28-.809-9.74 2.918-19.52 8.665-25.35 17.351-6.8 10.145-12.388 24.468-8.859 36.771 12.189 42.599 25.509 84.888 38.369 127.287 11.85 39.06 23.36 78.241 35.58 117.183 3.36 10.68 16.86 22.32 27.13 25.74 10.47 3.48 20.76 3.99 31.4.82 9.78-2.93 19.6-8.71 25.44-17.43 6.8-10.14 12.5-24.6 8.9-36.908l-.01-.01Zm292.73-82.988c-2.5-11.945-8.54-24.858-19.29-31.535-57.21-35.572-111.25-75.492-162.27-119.47-9.14-7.876-25.23-10.755-36.78-8.855-11.55 1.899-24.68 9.255-31.31 19.14-7.12 10.615-11.56 23.888-8.86 36.771 1.19 3.979 2.38 7.947 3.58 11.925 3.51 7.806 8.7 14.272 15.57 19.38 50.07 44.768 104.52 85.017 161.84 120.05 11.44 6.996 23.41 11.164 37.05 8.925 11.62-1.909 24.86-9.325 31.54-19.28 7.17-10.695 11.64-24.068 8.93-37.041v-.01Zm121.75 210.836c-2.46-11.79-8.5-25.2-19.32-31.58-57.36-33.83-118.44-60.62-183.2-76.54-20.83-5.12-41.76-10.02-63.01-13.05-11.79-1.68-26.02 3.14-35.16 10.45-9.44 7.55-17.36 20.97-18.02 33.25-.65 12.35 2.08 25.57 10.46 35.15 3.03 2.92 6.06 5.83 9.1 8.74 7.22 5.26 15.28 8.35 24.15 9.27 11.9 2.26 23.79 4.6 35.6 7.26 51.6 12.88 101.49 31.91 148.46 56.88 4.46 2.5 8.91 5.04 13.31 7.63 5.36 4.25 11.35 6.86 17.97 7.84 6.21 2.07 12.59 2.43 19.14 1.1 11.64-1.92 24.9-9.34 31.58-19.31 7.18-10.71 11.65-24.1 8.94-37.09Zm223.08 178.13c.4-4.26-.27-8.35-1.99-12.26-1.3-6.18-4.06-11.71-8.26-16.59l-9.09-8.74c-7.21-5.25-15.26-8.35-24.15-9.27-1.51-.16-3.02-.11-4.54-.12-6.47-.87-12.67-.13-18.61 2.21-6.19 1.31-11.74 4.07-16.64 8.28-5.34 3.95-9.3 8.89-11.91 14.85-3.68 5.53-5.73 11.68-6.16 18.46.14 4.21.28 8.43.41 12.63 1.42 8.4 4.78 15.94 10.07 22.6 3.04 2.92 6.08 5.85 9.12 8.77 7.24 5.27 15.31 8.36 24.21 9.29 5.72-.02 11.48.05 17.17-.53 6.39-.82 12.14-3.08 17.24-6.8 5.69-2.85 10.38-6.96 14.05-12.33 2.09-3.81 4.17-7.63 6.26-11.44 2.64-6.16 3.57-12.49 2.81-19l.01-.01ZM542.464 598.331c-39.55-68.966-72.971-141.409-99.625-216.312-6.878-19.34-13.276-38.841-19.265-58.481a3186.851 3186.851 0 0 1-6.308-21.739c-.82-6.387-3.09-12.134-6.809-17.241-2.849-5.697-6.958-10.385-12.337-14.063-9.727-7.167-24.733-11.375-36.78-8.856-12.107 2.529-24.224 8.566-31.313 19.141-6.888 10.274-12.157 24.297-8.857 36.771 23.244 87.886 55.916 173.603 96.596 254.883 11.127 22.229 22.904 44.138 35.251 65.707 6.648 11.604 14.216 20.81 27.173 25.777 11.207 4.298 26.503 4.458 37.451-.979 11.337-5.638 21.664-14.793 25.783-27.167 3.859-11.584 5.359-26.387-.98-37.441h.02ZM3484.41 1266.58c-6.02-12.1-14.85-19.82-27.05-25.67-5.84-2.79-11.6-5.74-17.32-8.76-46.13-25.85-88.52-57.66-133.3-85.69-25.66-16.08-52.18-31.32-79.98-43.4-27.23-11.85-55.94-20.19-85.16-25.5-28.24-5.13-57.91-5.78-86.31-1.58-15.84 2.34-31.54 6.8-46.54 12.28-15.07 5.48-28.75 13.46-42.25 22.03-22.62 14.38-42.29 34.53-58.12 56.01-16.19 21.97-29.3 46.96-38.81 72.54-23.78 64-26.31 132.71-27.67 200.16-.26 13.01 2.23 25.15 10.59 35.58 7.63 9.55 21.23 17.57 33.65 18.23 12.51.67 25.89-2.1 35.59-10.58 9.54-8.34 17.96-20.49 18.23-33.64.98-48.45 2.11-97.29 12.38-144.79 5.27-20.2 12.4-39.8 21.88-58.41 7.54-12.89 16.23-25.04 26.19-36.17 7.75-7.49 16.09-14.3 25.04-20.28a169.35 169.35 0 0 1 26.78-11.88c11.53-2.96 23.29-4.76 35.18-5.56 17.94 0 35.78 2.11 53.33 5.83 27.16 7.12 53.19 17.75 78.05 30.78 50.9 28.62 97.25 64.5 147.61 94.04 18.23 10.69 36.85 20.81 56.01 29.71 10.86 5.05 26.63 3.77 37.28-.98 10.92-4.85 21.84-15.52 25.68-27.04 3.99-11.97 4.81-25.65-.98-37.27l.02.01Zm-1018.65 125.96c-4.86-10.9-15.51-21.81-27.03-25.64-11.96-3.99-25.63-4.81-37.26.98-10.99 5.46-22.14 14.75-25.65 27.02-18.3 63.77-37.04 127.62-64.04 188.36-6.59 14.82-13.66 29.41-21.26 43.74-19.56 34.78-42.64 67.46-69.88 96.67-19.98 20.07-41.91 38.11-65.8 53.33-18.75 10.9-38.53 19.99-59.14 26.76-18.52 5.05-37.49 8.11-56.66 9.22-18.99.13-37.92-1.67-56.51-5.52-15.69-4.21-30.92-9.93-45.42-17.25a208.691 208.691 0 0 1-33.43-24.47c-.35-.36-.71-.72-1.06-1.08-9.37-9.73-19.7-16.84-33.61-18.21-11.77-1.16-26.48 2.65-35.54 10.56-9.72 8.5-17.49 20.32-18.21 33.6-.65 12.14 1.82 26.43 10.56 35.54 11.19 11.65 23.06 22.85 36.16 32.34 13.15 9.52 27.54 17.48 42.05 24.65 25.75 12.69 54.21 20.33 82.49 24.67 28.5 4.37 58.09 4.1 86.64.57 28.82-3.57 57.42-11.75 84.18-22.94 56.03-23.44 103.6-61.46 144.42-105.81 40.78-44.31 71.85-96.82 96.98-151.31 26.03-56.45 44.79-115.91 61.64-175.63 2.15-7.62 4.27-15.25 6.36-22.89 3.5-12.84 4.62-24.69-.98-37.26Zm1299.79-878.497c-2.13-45.527-8.13-91.134-15.67-136.052-7.5-44.638-17.14-88.976-29.2-132.614-11.75-42.528-25.83-84.128-52.4-119.99-7.67-10.355-16.7-19.24-26.09-28.056-6.57-6.167-13.67-11.694-21.36-16.412-10.92-6.706-22.43-12.953-34.44-17.53-12.25-4.678-25.21-7.667-38.02-10.316-24.55-5.067-49.5-4.777-74.44-3.788-21.52.86-43 3.249-64.3 6.397-11.99 1.77-24.17 9.445-31.3 19.13-7.17 9.726-11.38 24.728-8.86 36.762 2.53 12.104 8.57 24.218 19.13 31.295 11.19 7.496 23.29 10.394 36.77 8.855 19.67-2.239 39.31-4.578 59.09-5.567 17.64-.24 35.29.8 52.62 4.178 8.65 2.429 17.07 5.527 25.17 9.415a134.411 134.411 0 0 1 17.4 12.784c6.42 6.806 12.16 14.173 17.32 21.989 10.32 18.321 17.89 38.021 24.18 58.071 20.27 69.365 33.51 141.229 41.57 212.963 2.41 21.419 4.01 42.889 5.81 64.368.98 11.714 10.16 24.848 19.33 31.604 9.82 7.237 24.96 11.485 37.12 8.946 12.22-2.559 24.45-8.646 31.61-19.321 2.11-3.858 4.21-7.706 6.32-11.564 3.15-8.286 4.03-16.801 2.63-25.557l.01.01Zm-29.04 1382.147c-25.39-56.23-51.19-112.27-76.91-168.34-5.25-11.48-15.3-21.21-27.14-25.75-11.2-4.3-26.47-4.46-37.41.98-11.33 5.63-21.63 14.77-25.75 27.13-4.09 12.27-4.47 25.38.98 37.41 25.48 56.18 50.88 112.4 76.71 168.42 5.3 11.51 15.31 21.25 27.2 25.81 11.22 4.31 26.53 4.47 37.49-.98 11.35-5.65 21.69-14.8 25.82-27.2 4.09-12.3 4.45-25.41-.98-37.48h-.01Zm835.02-1087.204c-1.92-11.675-9.37-24.968-19.37-31.675-10.74-7.196-24.17-11.684-37.21-8.965-12.02 2.509-24.92 8.576-31.68 19.36-35.42 56.552-70.83 113.104-106.24 169.665-35.42 56.559-70.83 113.109-106.23 169.679-9.91 15.82-19.77 31.67-29.72 47.47-6.55 10.41-13.39 20.66-21.41 29.97a91.863 91.863 0 0 1-7.63 6.31c-1.11.54-2.23 1.04-3.36 1.52-.67.12-1.34.23-2.01.33-1.19-.09-2.38-.22-3.56-.38-2.16-.74-4.28-1.57-6.36-2.48a95.496 95.496 0 0 1-8.14-6.02c-2.86-3.2-5.49-6.58-7.93-10.11-4.36-8.15-7.87-16.69-10.8-25.46-10.63-38.45-15.18-79.23-16.89-119.04a661.687 661.687 0 0 1 16.21-162.263c8.75-34.883 20.3-69.016 34.72-101.979 7.78-17.781 16.22-35.303 22.96-53.524 7.63-20.649 13.89-42.938 14.95-65.007 1.1-22.819-2.32-43.798-9.84-65.268-7.32-20.909-20.64-38.27-36.81-53.053-8.19-7.496-18.31-13.024-28.34-17.581-10.96-4.978-23.54-7.886-35.55-8.596-25.38-1.499-50.73 4.538-73.42 15.792-34.24 16.982-64.54 42.149-92.5 67.916-27.37 25.238-53.11 52.554-76.46 81.559-44.26 54.973-80.45 117.242-107.25 182.509-26.86 65.427-44.37 135.685-50.79 206.125-.76 8.31-1.31 16.62-1.73 24.94-.64 12.65 2.45 25.26 10.5 35.31 7.59 9.48 21.08 17.43 33.41 18.09 12.41.67 25.69-2.09 35.32-10.5 9.69-8.47 17.33-20.17 18.09-33.4 2.12-36.56 7.18-72.88 15.19-108.6 13.75-55.663 34.44-109.436 61.41-160.031 27.72-49.455 61.36-95.452 100.3-136.671 12.74-12.934 25.98-25.368 39.75-37.222 14.76-12.704 29.97-25.167 46.33-35.802 7.25-4.088 14.72-7.676 22.53-10.535a92.418 92.418 0 0 1 9.48-1.669c1.69.1 3.37.25 5.05.47 1.02.36 2.02.75 3.02 1.159 1.16.81 2.29 1.649 3.39 2.519a84.92 84.92 0 0 1 4.17 5.287 99.5 99.5 0 0 1 4.48 10.255c1.15 4.928 1.96 9.905 2.44 14.933-.22 7.566-1.19 15.072-2.65 22.509-9.85 35.562-28.37 68.246-41.42 102.668-15.18 40.08-26.26 81.809-34.09 123.928a656.13 656.13 0 0 0-11 115.742c-.25 42.73 2.63 85.58 10 127.7 3.84 21.9 8.9 43.53 16.25 64.55 3.04 8.71 6.73 17.21 11.34 25.21 6.24 10.84 12.71 21.86 21.46 30.92 8.29 8.56 17.04 17.11 27.34 23.26 12.97 7.75 24.59 13.18 39.09 16.62 13.97 3.3 27.08 4.34 41.55 2.45 7.57-1 15.1-3.52 22.27-5.94 3.89-1.31 7.64-2.94 11.22-4.95 10.3-5.78 20.12-11.91 28.52-20.25 8.38-8.33 16.38-16.84 23.37-26.36 11.33-15.43 21-32.13 31.16-48.34 22.91-36.57 45.82-73.15 68.73-109.72 46.17-73.71 92.35-147.413 138.51-221.127 5.64-9.005 11.27-18.011 16.91-27.016 7.11-11.344 11.2-23.638 8.97-37.201v.01Zm-3999.003 0c-1.92-11.675-9.368-24.968-19.365-31.675-10.738-7.196-24.174-11.684-37.211-8.965-12.017 2.509-24.924 8.576-31.682 19.36-35.421 56.552-70.832 113.104-106.244 169.665-35.411 56.559-70.822 113.109-106.223 169.679-9.908 15.82-19.775 31.67-29.723 47.47-6.548 10.41-13.386 20.66-21.414 29.97a92 92 0 0 1-7.628 6.31c-1.11.54-2.23 1.04-3.359 1.52-.67.12-1.34.23-2.01.33-1.19-.09-2.379-.22-3.559-.38a82.696 82.696 0 0 1-6.358-2.48 95.308 95.308 0 0 1-8.138-6.02 102.96 102.96 0 0 1-7.928-10.11c-4.369-8.15-7.878-16.69-10.808-25.46-10.627-38.45-15.176-79.23-16.886-119.04a661.878 661.878 0 0 1 16.206-162.263c8.748-34.883 20.305-69.016 34.722-101.979 7.778-17.781 16.226-35.303 22.964-53.524 7.628-20.649 13.887-42.938 14.946-65.007 1.1-22.819-2.319-43.798-9.837-65.268-7.318-20.909-20.645-38.27-36.811-53.053-8.188-7.496-18.315-13.024-28.343-17.581-10.957-4.978-23.534-7.886-35.551-8.596-25.374-1.499-50.727 4.538-73.422 15.792-34.231 16.982-64.534 42.149-92.497 67.916-27.373 25.238-53.106 52.554-76.46 81.559-44.259 54.973-80.45 117.242-107.244 182.509-26.863 65.427-44.379 135.685-50.797 206.125-.76 8.31-1.31 16.62-1.73 24.94-.639 12.65 2.45 25.26 10.508 35.31 7.588 9.48 21.075 17.43 33.401 18.09 12.417.67 25.694-2.09 35.322-10.5 9.687-8.47 17.335-20.17 18.095-33.4 2.12-36.56 7.178-72.88 15.186-108.6 13.747-55.663 34.442-109.436 61.415-160.031 27.713-49.455 61.355-95.452 100.295-136.671 12.737-12.934 25.983-25.368 39.75-37.222 14.756-12.704 29.972-25.167 46.328-35.802 7.249-4.088 14.727-7.676 22.535-10.535a92.36 92.36 0 0 1 9.477-1.669c1.69.1 3.37.25 5.049.47 1.02.36 2.02.75 3.019 1.159 1.16.81 2.29 1.649 3.389 2.519a84.533 84.533 0 0 1 4.169 5.287 99.346 99.346 0 0 1 4.489 10.255c1.15 4.928 1.96 9.905 2.44 14.933-.22 7.566-1.19 15.072-2.65 22.509-9.857 35.562-28.373 68.246-41.419 102.668-15.186 40.08-26.264 81.809-34.092 123.928a655.363 655.363 0 0 0-11.007 115.742c-.25 42.73 2.63 85.58 10.008 127.7 3.839 21.9 8.897 43.53 16.245 64.55 3.04 8.71 6.729 17.21 11.338 25.21 6.238 10.84 12.716 21.86 21.464 30.92 8.288 8.56 17.036 17.11 27.343 23.26 12.967 7.75 24.584 13.18 39.091 16.62 13.966 3.3 27.073 4.34 41.549 2.45 7.568-1 15.096-3.52 22.265-5.94 3.889-1.31 7.638-2.94 11.217-4.95 10.307-5.78 20.125-11.91 28.523-20.25 8.378-8.33 16.386-16.84 23.374-26.36 11.327-15.43 20.995-32.13 31.152-48.34 22.914-36.57 45.829-73.15 68.733-109.72 46.168-73.71 92.347-147.413 138.515-221.127 5.639-9.005 11.267-18.011 16.906-27.016 7.108-11.344 11.197-23.638 8.968-37.201v.01Z"/>
  </g>
  <defs>
    <clipPath id="a">
      <path fill="#fff" d="M0 0h4000v2000H0z"/>
    </clipPath>
  </defs>
</svg>
