<svg xmlns="http://www.w3.org/2000/svg" fill="none" viewBox="0 0 32 32">
  <g clip-path="url(#a)">
    <path fill="#0002FF" d="M32 16c0 8.837-7.163 16-16 16S0 24.837 0 16 7.163 0 16 0s16 7.163 16 16Z"/>
    <path fill="#fff" d="M10.464 24c-.4.08-.8.136-1.2.168a9.674 9.674 0 0 1-1.2.072c-.56 0-1.048-.104-1.464-.312-.416-.224-.704-.576-.864-1.056-.16-.496-.168-1.144-.024-1.944.128-.688.344-1.48.648-2.376.304-.896.64-1.84 1.008-2.832.368-1.008.72-2.016 1.056-3.024.336-1.024.6-2 .792-2.928.112-.48.184-.92.216-1.32.048-.416.072-.832.072-1.248a6.73 6.73 0 0 1 .72-.12c.288-.032.624-.056 1.008-.072a16.42 16.42 0 0 1 1.344-.048c.848 0 1.48.112 1.896.336.416.224.696.52.84.888.144.368.224.768.24 1.2l.048 1.344a32.613 32.613 0 0 0 .192 2.496c.048.432.112.888.192 1.368.08.464.184.968.312 1.512l-.888-.744h1.872l-1.416.744c.416-.576.8-1.16 1.152-1.752.352-.608.68-1.208.984-1.8.304-.608.584-1.208.84-1.8.272-.608.52-1.208.744-1.8.24-.592.456-1.184.648-1.776.256-.048.52-.088.792-.12A15.717 15.717 0 0 1 22.8 6.96c.64 0 1.152.064 1.536.192.384.128.656.392.816.792.16.4.224 1.016.192 1.848a17.506 17.506 0 0 1-.12 1.56 29.262 29.262 0 0 1-.192 1.608 33.584 33.584 0 0 1-.24 1.632c-.096.544-.2 1.104-.312 1.68-.096.56-.208 1.128-.336 1.704-.128.576-.256 1.168-.384 1.776a30.424 30.424 0 0 0-.408 2.064c-.064.528-.104.96-.12 1.296-.016.32-.032.616-.048.888-.448.096-.856.16-1.224.192-.352.032-.768.048-1.248.048-.656 0-1.152-.056-1.488-.168-.336-.112-.552-.296-.648-.552-.096-.256-.12-.608-.072-1.056.048-.368.12-.736.216-1.104.112-.368.224-.72.336-1.056.128-.336.232-.648.312-.936.096-.256.184-.496.264-.72.08-.24.152-.48.216-.72.08-.256.16-.52.24-.792.08-.272.16-.56.24-.864.08-.32.16-.656.24-1.008.096-.368.192-.768.288-1.2l.576.648h-1.44l.888-.624a37.525 37.525 0 0 1-1.248 2.232 23.623 23.623 0 0 1-1.104 1.728 16.81 16.81 0 0 1-1.008 1.296c-.304.368-.592.688-.864.96a9.453 9.453 0 0 1-.768.696c-.208.048-.408.08-.6.096a6.655 6.655 0 0 1-.552.024c-.32 0-.552-.024-.696-.072-.144-.064-.32-.2-.528-.408a1.675 1.675 0 0 1-.288-.432 4.938 4.938 0 0 1-.288-.768c-.08-.32-.152-.72-.216-1.2a22.131 22.131 0 0 1-.144-1.752 28.677 28.677 0 0 1 0-2.352l.48.576h-.984l.528-.576c-.128.384-.256.752-.384 1.104-.112.336-.216.664-.312.984-.096.32-.192.632-.288.936-.096.304-.184.616-.264.936-.08.304-.168.624-.264.96-.08.32-.16.664-.24 1.032-.144.688-.24 1.36-.288 2.016A38.57 38.57 0 0 0 10.464 24Z"/>
  </g>
  <defs>
    <clipPath id="a">
      <path fill="#fff" d="M0 0h32v32H0z"/>
    </clipPath>
  </defs>
</svg>
